<?xml version="1.0" encoding="UTF-8"?>
<svg version="1.1" xmlns="http://www.w3.org/2000/svg" width="500" height="500">
<path d="M0 0 C165 0 330 0 500 0 C500 165 500 330 500 500 C335 500 170 500 0 500 C0 335 0 170 0 0 Z " fill="#F7F8FA" transform="translate(0,0)"/>
<path d="M0 0 C1.32 0 2.64 0 4 0 C4 2.64 4 5.28 4 8 C5.92440163 7.98334541 5.92440163 7.98334541 7.88768005 7.96635437 C19.99618547 7.86486136 32.10460423 7.78997814 44.21343899 7.74093914 C50.43829049 7.71487979 56.66279776 7.67954758 62.88745117 7.62280273 C68.89806043 7.56835396 74.90833919 7.53855192 80.9191761 7.52561378 C83.2088548 7.51639712 85.49851604 7.49839903 87.78805351 7.47134972 C91.00289436 7.43488964 94.21638113 7.43006191 97.43139648 7.43237305 C98.37151581 7.41439667 99.31163513 7.39642029 100.28024292 7.37789917 C108.13226421 7.43871367 113.61115942 10.07804303 119.5234375 15.17578125 C120.43996094 16.23345703 120.43996094 16.23345703 121.375 17.3125 C122.00148438 18.00988281 122.62796875 18.70726562 123.2734375 19.42578125 C127.82974782 26.21901315 128.4153852 32.45974283 128.1875 40.5 C128.17396484 41.4178125 128.16042969 42.335625 128.14648438 43.28125 C128.11148097 45.52146803 128.06238869 47.76040594 128 50 C129.21236328 49.94779297 129.21236328 49.94779297 130.44921875 49.89453125 C132.05216797 49.85392578 132.05216797 49.85392578 133.6875 49.8125 C134.74324219 49.77769531 135.79898437 49.74289062 136.88671875 49.70703125 C141.77738502 50.16725706 144.09448202 52.14667683 147.61068726 55.46020508 C151.07468327 59.73016414 150.7016654 64.21031355 150.64697266 69.5 C150.66011505 71.06693604 150.66011505 71.06693604 150.67352295 72.66552734 C150.69548875 76.1107769 150.68097305 79.5547379 150.6640625 83 C150.66743141 85.39844 150.67228466 87.79687834 150.67855835 90.1953125 C150.68592591 95.21891555 150.67522717 100.24207371 150.65185547 105.265625 C150.62336864 111.70202039 150.63977311 118.13737332 150.66971779 124.57373047 C150.68779337 129.5254704 150.68203134 134.47696354 150.66907883 139.42871094 C150.66574558 141.80175907 150.66982897 144.17482967 150.68147659 146.54785156 C150.69418872 149.86583728 150.67480062 153.18213954 150.64697266 156.5 C150.65709381 157.47888184 150.66721497 158.45776367 150.67764282 159.46630859 C150.60898769 163.8892685 150.47366441 167.01242495 147.63925171 170.5390625 C142.52318643 175.30947407 138.87678644 176.14631461 132 176 C132.02320313 177.20398438 132.04640625 178.40796875 132.0703125 179.6484375 C132.08906863 181.22395215 132.10726899 182.79947348 132.125 184.375 C132.14175781 185.1690625 132.15851563 185.963125 132.17578125 186.78125 C132.19335473 188.85492015 132.10335168 190.92883241 132 193 C128.85733774 196.14266226 125.33862641 195.36834455 121.0625 195.375 C120.23814453 195.39949219 119.41378906 195.42398438 118.56445312 195.44921875 C112.57048409 195.47843387 112.57048409 195.47843387 110.0390625 193.35546875 C108.81259911 190.57517767 108.00581745 187.89785545 107.3125 184.9375 C106.93544922 183.37322266 106.93544922 183.37322266 106.55078125 181.77734375 C106 179 106 179 106 176 C40 176 -26 176 -94 176 C-94.66 179.3 -95.32 182.6 -96 186 C-98.60416667 193.60416667 -98.60416667 193.60416667 -100 195 C-102.99018161 195.12667764 -105.94694108 195.18520838 -108.9375 195.1875 C-109.77474609 195.19974609 -110.61199219 195.21199219 -111.47460938 195.22460938 C-112.27576172 195.22654297 -113.07691406 195.22847656 -113.90234375 195.23046875 C-114.63960693 195.23457764 -115.37687012 195.23868652 -116.13647461 195.24291992 C-118 195 -118 195 -120 193 C-120.14517744 190.0906442 -120.18630796 187.280054 -120.125 184.375 C-120.11597656 183.57320312 -120.10695313 182.77140625 -120.09765625 181.9453125 C-120.07406223 179.96341477 -120.03819065 177.98167019 -120 176 C-121.09054688 176.02320313 -122.18109375 176.04640625 -123.3046875 176.0703125 C-128.00555136 175.98086689 -131.0584518 174.91538178 -134.44921875 171.5703125 C-137.78950347 167.72276392 -139.11639492 164.80656114 -139.15390015 159.78279114 C-139.16680084 158.49396027 -139.16680084 158.49396027 -139.17996216 157.17909241 C-139.18422211 156.23932053 -139.18848206 155.29954865 -139.19287109 154.33129883 C-139.20104858 153.33909332 -139.20922607 152.34688782 -139.21765137 151.32461548 C-139.2424977 148.03542687 -139.25902041 144.74628143 -139.2734375 141.45703125 C-139.27876118 140.33341375 -139.28408485 139.20979626 -139.28956985 138.05212975 C-139.3162994 132.10368914 -139.3356741 126.1552695 -139.35009766 120.20678711 C-139.3667359 114.06768164 -139.41150801 107.92911398 -139.4624691 101.79021168 C-139.49615359 97.06578466 -139.50767651 92.34148505 -139.51332474 87.61694908 C-139.52003486 85.35436587 -139.53525058 83.09179097 -139.55921555 80.82932472 C-139.59089153 77.65766439 -139.59089956 74.48745131 -139.58349609 71.31567383 C-139.6081041 69.92119774 -139.6081041 69.92119774 -139.63320923 68.49855042 C-139.57264742 62.14044023 -138.07075337 57.92831389 -134 53 C-130.14367064 49.78744412 -127.12195557 49.66297104 -122.1875 49.8125 C-120.44533203 49.85310547 -120.44533203 49.85310547 -118.66796875 49.89453125 C-117.78753906 49.92933594 -116.90710938 49.96414063 -116 50 C-116.02094727 49.44127197 -116.04189453 48.88254395 -116.06347656 48.30688477 C-116.14766294 45.72561327 -116.19897693 43.14463176 -116.25 40.5625 C-116.28351563 39.68400391 -116.31703125 38.80550781 -116.3515625 37.90039062 C-116.47171667 29.75994548 -114.26143577 22.9389147 -108.8125 16.75 C-108.30332031 16.14671875 -107.79414063 15.5434375 -107.26953125 14.921875 C-100.66589282 9.32980941 -94.7414801 7.25421772 -86.16577148 7.43237305 C-85.22811447 7.43164291 -84.29045746 7.43091278 -83.3243866 7.43016052 C-80.25601305 7.43361611 -77.18919877 7.47238085 -74.12109375 7.51171875 C-71.98162159 7.52105409 -69.84213868 7.52816679 -67.70265198 7.53315735 C-62.09481861 7.5521702 -56.48764152 7.60122199 -50.88006592 7.65667725 C-45.14864986 7.70799305 -39.41712687 7.73069769 -33.68554688 7.75585938 C-22.45674426 7.80934607 -11.22842689 7.89458963 0 8 C0 5.36 0 2.72 0 0 Z " fill="#040300" transform="translate(248,232)"/>
<path d="M0 0 C0.65073486 -0.00619858 1.30146973 -0.01239716 1.97192383 -0.01878357 C3.34357207 -0.02586675 4.71530655 -0.0227337 6.08691406 -0.01000977 C8.18195088 0.00386949 10.27252711 -0.03023439 12.3671875 -0.06835938 C13.70312609 -0.06931058 15.03907025 -0.06745164 16.375 -0.0625 C17.58542969 -0.0632251 18.79585937 -0.0639502 20.04296875 -0.06469727 C23.1875 0.56640625 23.1875 0.56640625 25.35090637 2.70991516 C27.51869189 6.08151568 27.696407 7.92239754 27.7175293 11.90136719 C27.73402023 13.15906921 27.75051117 14.41677124 27.76750183 15.71258545 C27.76584776 17.07531774 27.76391349 18.43804972 27.76171875 19.80078125 C27.77416855 21.20373272 27.78850408 22.60666862 27.80464172 24.00958252 C27.84259826 27.6917037 27.8578452 31.37355603 27.86743164 35.05584717 C27.8872109 40.96362357 27.94390078 46.87119587 27.99619484 52.77875519 C28.01157908 54.84452601 28.01873757 56.9101951 28.02433777 58.97601318 C28.03137222 60.22110657 28.03840668 61.46619995 28.0456543 62.74902344 C28.04913376 63.85091003 28.05261322 64.95279663 28.05619812 66.08807373 C27.90748609 68.5092945 27.90748609 68.5092945 29.1875 69.56640625 C31.66412225 69.66633635 34.11291804 69.70082247 36.59008789 69.69338989 C37.76637426 69.69572988 37.76637426 69.69572988 38.96642399 69.69811714 C41.61435343 69.70213028 44.26222631 69.69893629 46.91015625 69.69580078 C48.80028314 69.69715468 50.69040977 69.69893455 52.58053589 69.70111084 C57.72914649 69.70568649 62.87773715 69.70389507 68.02634811 69.70073175 C73.40176194 69.69820883 78.777174 69.7005455 84.15258789 69.70211792 C93.181481 69.70393982 102.21036594 69.70153279 111.23925781 69.69677734 C121.69399069 69.69133469 132.14870407 69.69309733 142.60343647 69.69860375 C151.56221083 69.70313431 160.52097931 69.70378571 169.47975445 69.70116508 C174.83807889 69.69960199 180.19639416 69.6994094 185.55471802 69.70270157 C190.5910242 69.70557946 195.62730512 69.7036061 200.66360855 69.69780731 C202.51762983 69.69647927 204.37165322 69.69687457 206.22567368 69.69906998 C208.74544903 69.70177977 211.26514208 69.69840247 213.78491211 69.69338989 C214.52837922 69.69562061 215.27184633 69.69785134 216.03784275 69.70014966 C219.39805455 69.98362012 219.39805455 69.98362012 222.1875 68.56640625 C222.29012146 66.62941883 222.32322067 64.68871772 222.3293457 62.74902344 C222.33638016 61.50393005 222.34341461 60.25883667 222.35066223 58.97601318 C222.35247812 58.30616142 222.35429401 57.63630966 222.35616493 56.94615936 C222.36331742 54.85269589 222.37897589 52.7594686 222.39750671 50.66607666 C222.45002339 44.71247671 222.4979276 38.75900218 222.51342773 32.80517578 C222.52352358 29.16628382 222.55289223 25.52797981 222.59474754 21.88932037 C222.60704499 20.50353702 222.61218107 19.11767053 222.60994911 17.73183441 C222.60759005 15.78828222 222.6319891 13.84475377 222.6574707 11.90136719 C222.66333694 10.79629822 222.66920319 9.69122925 222.67524719 8.55267334 C223.30795245 4.86420769 224.54856866 3.18106659 227.1875 0.56640625 C230.33203125 -0.06469727 230.33203125 -0.06469727 234 -0.0625 C234.65073486 -0.06491196 235.30146973 -0.06732391 235.97192383 -0.06980896 C237.34364942 -0.06883227 238.71541528 -0.05548027 240.08691406 -0.03051758 C242.18170591 0.0038113 244.2722796 -0.00986314 246.3671875 -0.02929688 C247.70314288 -0.02239802 249.03908741 -0.01272524 250.375 0 C252.19064453 0.0163147 252.19064453 0.0163147 254.04296875 0.03295898 C257.96242935 0.69786748 258.87508498 1.3459644 261.1875 4.56640625 C261.79163951 7.71646684 261.74405748 10.82951826 261.72094727 14.02905273 C261.72956284 14.98720886 261.73817841 15.94536499 261.74705505 16.93255615 C261.76976532 20.10114525 261.76296645 23.26885352 261.75390625 26.4375 C261.75913978 28.63941207 261.76541527 30.84132188 261.77268982 33.04322815 C261.78310356 37.65921575 261.77851871 42.27489527 261.76391602 46.89086914 C261.74673194 52.80727493 261.77021446 58.72270926 261.80540562 64.63900661 C261.82736341 69.18665508 261.82594191 73.73407055 261.8176403 78.28175545 C261.81681981 80.46305468 261.82370192 82.64437086 261.83841133 84.82562065 C261.85582561 87.87580987 261.84133956 90.92424663 261.81860352 93.97436523 C261.83029572 94.87582779 261.84198792 95.77729034 261.85403442 96.70606995 C261.84138046 97.54016388 261.8287265 98.37425781 261.81568909 99.23362732 C261.81510278 99.95388312 261.81451647 100.67413893 261.81391239 101.41622066 C260.76636423 105.01197163 259.2075555 106.36870471 256.1875 108.56640625 C252.68360452 109.30023529 249.24267082 109.2410776 245.67333984 109.20132446 C244.60270483 109.20912442 243.53206982 109.21692437 242.42899132 109.22496068 C238.83512518 109.24493241 235.24231183 109.22909477 231.6484375 109.21337891 C229.07455831 109.22015267 226.50068397 109.22905443 223.92681885 109.2399292 C217.65786553 109.26216602 211.38921147 109.25735864 205.12024641 109.24286599 C200.02551282 109.23157541 194.93086312 109.23004204 189.83612061 109.23548508 C189.11109702 109.23625124 188.38607344 109.23701741 187.63907945 109.23780679 C186.16622175 109.23940541 184.69336408 109.24102648 183.22050643 109.24266975 C169.40849328 109.25692854 155.59664604 109.24053256 141.7846601 109.21366791 C129.93252885 109.19132896 118.08064245 109.19520905 106.22851562 109.21826172 C92.46604442 109.24501751 78.70371863 109.25555523 64.94122505 109.2402004 C63.47377652 109.23860765 62.00632797 109.2370358 60.53887939 109.23548508 C59.45585181 109.23432801 59.45585181 109.23432801 58.35094488 109.23314757 C53.26214634 109.22882988 48.17344002 109.23611855 43.08465576 109.24788284 C36.23584828 109.26336788 29.38751146 109.25234809 22.53874969 109.22341156 C20.02203898 109.21678825 17.50528942 109.21871948 14.98859406 109.22972488 C11.55908589 109.24334167 8.13107247 109.22630894 4.70166016 109.20132446 C3.19947968 109.21805488 3.19947968 109.21805488 1.66695213 109.23512328 C-2.92702997 109.16998099 -5.13022877 109.06289664 -8.93037319 106.29752254 C-10.79863929 103.58651925 -11.43806903 102.45225298 -11.44068909 99.23362732 C-11.45334305 98.39953339 -11.46599701 97.56543945 -11.47903442 96.70606995 C-11.46149612 95.35387611 -11.46149612 95.35387611 -11.44360352 93.97436523 C-11.45075882 93.01445679 -11.45791412 92.05454834 -11.46528625 91.06555176 C-11.48217448 87.89738156 -11.46277073 84.73062596 -11.44140625 81.5625 C-11.44223486 79.35962304 -11.44469396 77.15674613 -11.44871521 74.95387268 C-11.45157322 70.33958299 -11.43686992 65.7257787 -11.40942383 61.11157227 C-11.37532153 55.19406054 -11.38136614 49.2774157 -11.4000864 43.35986233 C-11.41064882 38.81224834 -11.40172571 34.26483647 -11.38670158 29.71724129 C-11.38151512 27.53513247 -11.38200718 25.35300259 -11.38824654 23.17089653 C-11.39369022 20.12315248 -11.37335076 17.07665481 -11.34594727 14.02905273 C-11.35247314 13.12556595 -11.35899902 12.22207916 -11.36572266 11.29121399 C-11.27259308 5.20716624 -11.27259308 5.20716624 -8.97569275 2.0083313 C-5.92848328 -0.02285509 -3.64281197 0.03273294 0 0 Z " fill="#F6CC02" transform="translate(128.8125,290.43359375)"/>
<path d="M0 0 C1.20206784 -0.00551503 1.20206784 -0.00551503 2.42841989 -0.01114148 C5.12288471 -0.02218449 7.81731097 -0.02602322 10.51179504 -0.02983093 C12.44012067 -0.03609514 14.36844509 -0.0427419 16.29676819 -0.04974365 C21.54282395 -0.06715778 26.7888706 -0.07770667 32.03494811 -0.08594918 C35.31235586 -0.09109876 38.58976077 -0.09717453 41.86716652 -0.10346031 C52.12087687 -0.12251405 62.37458001 -0.13674448 72.62830466 -0.14507228 C84.4653151 -0.15484459 96.30213854 -0.18116326 108.13908309 -0.22157317 C117.28738984 -0.25173279 126.43564299 -0.26654104 135.5839985 -0.26985329 C141.04823207 -0.27220404 146.5122659 -0.28116783 151.97644615 -0.30631447 C157.11876881 -0.32959723 162.26076024 -0.3338275 167.40312195 -0.32355309 C169.28807998 -0.32305766 171.17305432 -0.32938009 173.05796242 -0.34310913 C175.63685588 -0.36083832 178.21456198 -0.35371724 180.79345703 -0.34057617 C181.53462475 -0.35154542 182.27579248 -0.36251466 183.03941983 -0.37381631 C189.05631029 -0.30009111 194.29821047 1.45636121 198.7826125 5.59448451 C202.52788435 9.8420477 203.34902611 13.19107467 203.31184387 18.69404602 C203.30862122 19.53838196 203.30539856 20.3827179 203.30207825 21.25263977 C203.29369934 22.12533508 203.28532043 22.9980304 203.27668762 23.89717102 C203.2721759 24.78533508 203.26766418 25.67349915 203.26301575 26.58857727 C203.25126162 28.77484431 203.23483011 30.96097281 203.21418762 33.14717102 C201.92834778 33.15103821 201.92834778 33.15103821 200.61653137 33.15498352 C193.92001662 33.38147218 189.36382739 33.67322198 184.48371887 38.47920227 C181.44009713 42.47805299 180.93695315 45.64576845 180.80012512 50.66279602 C180.74211731 52.53838196 180.74211731 52.53838196 180.68293762 54.45185852 C180.65200012 55.75381165 180.62106262 57.05576477 180.58918762 58.39717102 C180.53117981 60.37330383 180.53117981 60.37330383 180.47200012 62.38935852 C180.3777258 65.64182263 180.29212013 68.89428098 180.21418762 72.14717102 C179.39434387 71.79783508 178.57450012 71.44849915 177.72981262 71.08857727 C176.65215637 70.63353821 175.57450012 70.17849915 174.46418762 69.70967102 C173.39684387 69.25721008 172.32950012 68.80474915 171.22981262 68.33857727 C166.71942925 66.55662529 163.1217261 66.02037914 158.25773621 66.00672913 C157.03822266 66.00101898 155.81870911 65.99530884 154.5622406 65.98942566 C153.21363841 65.98818037 151.8650361 65.98705526 150.51643372 65.98603821 C149.09366223 65.98140788 147.67089198 65.97638293 146.24812317 65.97099304 C142.38417592 65.95788452 138.52024604 65.95142667 134.65628004 65.94698238 C132.23934796 65.94404811 129.82242058 65.93994255 127.40549088 65.93547821 C119.83533989 65.92180505 112.26519972 65.91213848 104.69503725 65.90827632 C95.97213087 65.90380108 87.24938162 65.8862773 78.52652299 65.85727572 C71.77474633 65.83561135 65.02301371 65.82556945 58.27120268 65.8242352 C54.24335092 65.82319023 50.21564688 65.81734878 46.18783188 65.79941559 C42.39404379 65.78285325 38.60051317 65.78081863 34.80670166 65.7895546 C33.42086723 65.79032073 32.03501849 65.7860387 30.64921951 65.77609634 C20.09909681 65.70489745 11.52288244 67.00289231 2.21418762 72.14717102 C2.20484192 71.33038879 2.19549622 70.51360657 2.18586731 69.67207336 C2.13203255 65.95483596 2.04840769 62.23883902 1.96418762 58.52217102 C1.95000793 57.23697571 1.93582825 55.9517804 1.92121887 54.62763977 C1.81932007 45.54901921 1.81932007 45.54901921 -2.78581238 38.14717102 C-8.08422756 33.24613697 -13.90078292 33.36998751 -20.78581238 33.14717102 C-20.90270864 29.77246598 -20.97329172 26.39828672 -21.03581238 23.02217102 C-21.069328 22.0708429 -21.10284363 21.11951477 -21.13737488 20.13935852 C-21.23284714 13.26535596 -20.0967213 9.55522153 -15.18815613 4.50263977 C-10.05766663 0.41192948 -6.36168054 -0.00155898 0 0 Z " fill="#F9CE02" transform="translate(162.7858123779297,248.8528289794922)"/>
<path d="M0 0 C1.46779134 -0.00322411 2.9355789 -0.00904854 4.40335083 -0.01725769 C8.36635379 -0.03172099 12.32833331 -0.00894345 16.29121256 0.02160144 C20.4492454 0.04807665 24.60725038 0.04266806 28.76535034 0.04151917 C35.74413034 0.0443229 42.72251741 0.07029237 49.70117188 0.11132812 C57.75892892 0.15853538 65.81625646 0.1743208 73.87414181 0.17212147 C82.47136513 0.1700922 91.06842389 0.19092711 99.66559744 0.21846128 C102.13554229 0.22484165 104.60546042 0.22698293 107.07541275 0.22817802 C110.96126529 0.23120087 114.84676008 0.2495918 118.73249435 0.27967644 C120.15504006 0.28840655 121.57762694 0.29213666 123.00019836 0.29039383 C138.21718094 0.27880973 138.21718094 0.27880973 145.06982422 6.04125977 C151.65425887 13.90600116 150.31982422 17.61040005 150.31982422 28.72875977 C91.57982422 28.72875977 32.83982422 28.72875977 -27.68017578 28.72875977 C-27.68017578 11.40721319 -27.68017578 11.40721319 -23.68017578 6.72875977 C-16.60736176 -0.03579748 -9.35212965 -0.11983667 0 0 Z " fill="#F9CE02" transform="translate(192.68017578125,323.271240234375)"/>
<path d="M0 0 C1.18130493 -0.00139984 2.36260986 -0.00279968 3.57971191 -0.00424194 C21.73617853 0.01347273 38.83946416 0.92449949 56.5 5.4375 C57.32064941 5.63504883 58.14129883 5.83259766 58.98681641 6.03613281 C63.92725158 7.24335457 68.71637729 8.7142144 73.5 10.4375 C74.25974121 10.70900879 75.01948242 10.98051758 75.80224609 11.26025391 C127.85576664 30.21640225 170.03776539 68.01609651 193.50292969 118.24511719 C199.59326676 131.63670066 204.20796136 145.10442072 207.5 159.4375 C207.65839355 160.12166992 207.81678711 160.80583984 207.97998047 161.51074219 C209.998354 170.32727586 211.63531868 178.82569818 211.59765625 187.90234375 C211.59553383 188.91960289 211.59553383 188.91960289 211.59336853 189.95741272 C211.58782745 192.09665578 211.57528653 194.23578925 211.5625 196.375 C211.55747736 197.83658702 211.5529158 199.29817569 211.54882812 200.75976562 C211.53787745 204.31904526 211.52065445 207.87826191 211.5 211.4375 C209.52 211.4375 207.54 211.4375 205.5 211.4375 C205.42483154 210.25329468 205.42483154 210.25329468 205.34814453 209.04516602 C202.63541849 166.79491929 195.64467881 127.8112865 170.5 92.4375 C169.76007813 91.39464844 169.02015625 90.35179687 168.2578125 89.27734375 C164.01229669 83.46730395 159.49404468 78.02366755 154.61328125 72.73828125 C152.70404395 70.65964766 150.88023356 68.53329254 149.0625 66.375 C137.18500659 52.81237023 121.93234866 42.5149042 106.5 33.4375 C105.89462402 33.07914063 105.28924805 32.72078125 104.66552734 32.3515625 C93.82007914 26.01636794 82.32155565 21.60836715 70.5 17.4375 C69.33597656 17.025 68.17195313 16.6125 66.97265625 16.1875 C16.54297562 -0.42768435 -44.85085275 3.97802944 -92.19995117 27.65063477 C-137.45891037 50.93290559 -174.09725517 90.26639111 -190.19726562 139.05371094 C-191.15532705 142.13897207 -192.05171101 145.23773984 -192.91210938 148.3515625 C-193.44623482 150.24673187 -194.04022349 152.12477336 -194.640625 154 C-200.22579644 172.33936889 -200.82675051 192.37757466 -201.5 211.4375 C-203.81 211.4375 -206.12 211.4375 -208.5 211.4375 C-210.31905583 155.51837625 -189.73165179 103.74139259 -151.96826172 62.77587891 C-144.59348762 54.94578667 -136.70840955 48.06388232 -128.09326172 41.63378906 C-126.68362504 40.57537353 -125.29515789 39.48889128 -123.91015625 38.3984375 C-109.32022108 27.19668633 -92.63050363 18.95007313 -75.5 12.4375 C-74.65969238 12.1089502 -73.81938477 11.78040039 -72.95361328 11.44189453 C-65.96009417 8.78317 -58.92028617 6.94422673 -51.625 5.3125 C-50.54347656 5.06113281 -49.46195313 4.80976563 -48.34765625 4.55078125 C-45.07242912 3.80516935 -41.79084011 3.11062639 -38.5 2.4375 C-37.56961914 2.23664795 -36.63923828 2.0357959 -35.68066406 1.82885742 C-23.93368448 -0.368029 -11.90508628 -0.00134099 0 0 Z " fill="#2B2829" transform="translate(252.5,160.5625)"/>
<path d="M0 0 C4.80276457 3.62987891 7.99304226 8.73040854 9.85546875 14.40234375 C10.49836751 19.95669 10.61838807 24.81999256 8.16796875 29.90234375 C2.85647399 35.64450024 -3.54533606 40.01650177 -11.58203125 40.5703125 C-16.6937748 40.19902032 -20.24647355 38.85744035 -24.14453125 35.40234375 C-26.06323051 32.85473751 -27.64065942 30.21146283 -29.14453125 27.40234375 C-29.57765625 26.61859375 -30.01078125 25.83484375 -30.45703125 25.02734375 C-32.18623601 18.42492559 -31.885873 12.13382129 -28.48046875 6.15625 C-21.66365693 -2.79330704 -9.80095168 -5.49714056 0 0 Z " fill="#090909" transform="translate(127.14453125,138.59765625)"/>
<path d="M0 0 C5.03529373 2.85016626 9.09230685 6.04471027 12.3125 10.875 C13.29289304 19.00314226 12.70264546 26.82531714 8.3125 33.875 C5.11117395 37.36865204 1.68601376 40.61211082 -3.15625 41.1484375 C-10.81321542 41.40498531 -16.34149772 40.28961028 -22.6875 35.875 C-27.99184354 30.311908 -28.10427852 26.0818941 -28.01953125 18.5625 C-27.43821693 12.10649155 -25.33571217 7.47108201 -20.703125 2.9296875 C-14.01059812 -2.17277094 -7.87670333 -2.40306203 0 0 Z " fill="#090909" transform="translate(376.6875,128.125)"/>
<path d="M0 0 C4.62 0 9.24 0 14 0 C14 8.25 14 16.5 14 25 C16.31 24.01 18.62 23.02 21 22 C26.70130368 21.27437953 31.42805655 22.53128638 36 26 C38.84429214 29.89984733 39.36103904 32.60692085 39.29296875 37.39453125 C39.2784668 39.19760742 39.2784668 39.19760742 39.26367188 41.03710938 C39.23853516 42.28298828 39.21339844 43.52886719 39.1875 44.8125 C39.16719727 46.71032227 39.16719727 46.71032227 39.14648438 48.64648438 C39.11118318 51.76475643 39.06186819 54.88216042 39 58 C41.97 58.495 41.97 58.495 45 59 C45 60.32 45 61.64 45 63 C38.73 63 32.46 63 26 63 C26.33 61.68 26.66 60.36 27 59 C28.485 58.505 28.485 58.505 30 58 C30.11608127 53.58355402 30.1872132 49.16749983 30.25 44.75 C30.28351563 43.49574219 30.31703125 42.24148437 30.3515625 40.94921875 C30.37089844 39.14130859 30.37089844 39.14130859 30.390625 37.296875 C30.4220459 35.63156738 30.4220459 35.63156738 30.45410156 33.93261719 C30.20546101 30.41802564 30.20546101 30.41802564 26 27 C22.04 27.33 18.08 27.66 14 28 C14.33 37.9 14.66 47.8 15 58 C16.65 58.66 18.3 59.32 20 60 C20 60.99 20 61.98 20 63 C13.73 63 7.46 63 1 63 C1 62.01 1 61.02 1 60 C3.475 59.505 3.475 59.505 6 59 C6 40.85 6 22.7 6 4 C4.02 4 2.04 4 0 4 C0 2.68 0 1.36 0 0 Z " fill="#0A0A0A" transform="translate(225,84)"/>
<path d="M0 0 C3.73872909 0.68670534 4.21485523 1.59723039 6.4375 4.5625 C7.3316392 5.88307482 8.21292658 7.21282308 9.0625 8.5625 C8.4025 9.8825 7.7425 11.2025 7.0625 12.5625 C6.49402344 12.11777344 5.92554688 11.67304688 5.33984375 11.21484375 C0.39455332 7.57123212 0.39455332 7.57123212 -5.5 6.3125 C-11.28098237 8.41467541 -15.27949712 11.7801469 -19.4375 16.25 C-21.91668742 21.72487222 -21.91645558 27.19115298 -20.2421875 32.95703125 C-19.27904565 35.26776232 -18.18525578 37.39248995 -16.9375 39.5625 C-16.50179687 40.325625 -16.06609375 41.08875 -15.6171875 41.875 C-11.56566497 48.42828235 -6.21645098 54.57590752 1.0625 57.5625 C8.18942265 58.8628508 12.97973954 57.03845182 18.93359375 53.16796875 C19.63613281 52.63816406 20.33867188 52.10835937 21.0625 51.5625 C21.66835937 51.15 22.27421875 50.7375 22.8984375 50.3125 C24.85018156 47.37833443 23.83479039 44.72985015 23.25 41.375 C23.03730469 40.10269531 22.82460937 38.83039063 22.60546875 37.51953125 C22.42628906 36.54371094 22.24710938 35.56789062 22.0625 34.5625 C24.38671875 34.77734375 24.38671875 34.77734375 27.0625 35.5625 C28.64453125 37.62890625 28.64453125 37.62890625 29.875 40.125 C30.29394531 40.95128906 30.71289062 41.77757812 31.14453125 42.62890625 C31.44746094 43.26699219 31.75039062 43.90507812 32.0625 44.5625 C26.44872518 55.42332063 17.38222198 60.78925934 6.0625 64.5625 C-3.44804181 65.60968962 -10.17528722 63.03727013 -17.5625 57.125 C-24.57990649 50.41591541 -29.14544593 42.78921058 -29.61499023 32.98974609 C-29.6583945 23.27777607 -27.80708216 17.46868969 -21.25 10.375 C-14.79375546 4.25602197 -8.58383505 1.6437131 0 0 Z " fill="#090909" transform="translate(70.9375,137.4375)"/>
<path d="M0 0 C3.84235498 1.13524124 7.1258669 2.1258669 10 5 C10 6.32 10 7.64 10 9 C11.010625 9.0825 12.02125 9.165 13.0625 9.25 C18.79132172 10.09656677 22.66445219 12.45898329 26.4375 16.8125 C28.39150437 20.79866891 28.72269517 22.59155947 28 27 C24.5525837 35.06494104 19.28769839 42.06157343 14 49 C14.350625 49.5775 14.70125 50.155 15.0625 50.75 C16.14917407 53.35801776 15.93065133 54.39417629 15 57 C11.98232137 55.36374759 8.9855169 53.69422016 6 52 C5.36191406 51.64292969 4.72382813 51.28585938 4.06640625 50.91796875 C2.4375 49.9375 2.4375 49.9375 0 48 C0 46.68 0 45.36 0 44 C1.06992187 44.1134375 2.13984375 44.226875 3.2421875 44.34375 C7.1038086 44.40352805 7.1038086 44.40352805 9.2578125 41.65625 C10.18207031 40.09390625 10.18207031 40.09390625 11.125 38.5 C11.78628906 37.40300781 12.44757813 36.30601562 13.12890625 35.17578125 C13.74636719 34.12777344 14.36382812 33.07976562 15 32 C16.01930054 30.56141272 17.03986623 29.12371973 18.0625 27.6875 C19.8236516 24.80616013 20.00844354 23.83112924 20.1875 20.25 C18.64622006 16.03176017 16.97196935 14.98598467 13 13 C11.34091395 12.63078143 9.67466325 12.29050281 8 12 C5.42458328 15.6859257 2.896058 19.4017293 0.375 23.125 C-0.3571875 24.17171875 -1.089375 25.2184375 -1.84375 26.296875 C-2.52695312 27.31523437 -3.21015625 28.33359375 -3.9140625 29.3828125 C-4.5529541 30.31496582 -5.1918457 31.24711914 -5.85009766 32.20751953 C-7.33660371 35.04187423 -7.33660371 35.04187423 -6.19287109 38.35107422 C-5.79922363 39.22521973 -5.40557617 40.09936523 -5 41 C-6.578125 41.77734375 -6.578125 41.77734375 -9 42 C-11.41400813 40.60349046 -13.53072015 39.21842419 -15.75 37.5625 C-16.35199219 37.12873047 -16.95398438 36.69496094 -17.57421875 36.24804688 C-19.05769401 35.17664807 -20.52997152 34.08977545 -22 33 C-21.67 32.01 -21.34 31.02 -21 30 C-18.69 30.33 -16.38 30.66 -14 31 C-13.73340576 30.26571777 -13.46681152 29.53143555 -13.19213867 28.77490234 C-12.01866088 26.04343631 -10.69701002 23.9781613 -8.92578125 21.6015625 C-8.34119141 20.79203125 -7.75660156 19.9825 -7.15429688 19.1484375 C-5.92605154 17.46562417 -4.68640417 15.79107423 -3.43554688 14.125 C0.40343953 9.01623507 0.40343953 9.01623507 0.89453125 2.8984375 C0.59933594 1.94195312 0.30414063 0.98546875 0 0 Z " fill="#0A0A0A" transform="translate(428,154)"/>
<path d="M0 0 C2.76184697 7.08332516 5.05990688 14.28645176 7.25 21.5625 C7.52021973 22.45549805 7.79043945 23.34849609 8.06884766 24.26855469 C8.31940918 25.1093457 8.5699707 25.95013672 8.828125 26.81640625 C9.0540332 27.57381104 9.27994141 28.33121582 9.51269531 29.11157227 C10 31 10 31 10 33 C11.98 33 13.96 33 16 33 C16 34.32 16 35.64 16 37 C14.25183142 37.50636607 12.50137737 38.00484619 10.75 38.5 C9.77546875 38.7784375 8.8009375 39.056875 7.796875 39.34375 C5 40 5 40 1 40 C-0.87494564 41.08026513 -0.87494564 41.08026513 -2.6875 42.5 C-7.14134167 45.42491095 -10.78006702 45.8799887 -16 45 C-20.60399871 43.36302268 -21.92107235 40.64753191 -24.00317383 36.36230469 C-26.0996817 31.3939456 -27.31236884 26.11483862 -28.62304688 20.89453125 C-29.85751288 15.72925857 -29.85751288 15.72925857 -33.69140625 12.3984375 C-34.45324219 12.26695312 -35.21507812 12.13546875 -36 12 C-36 11.34 -36 10.68 -36 10 C-31.60378337 7.93119217 -28.88981218 6.9155108 -24 7 C-23.74307373 7.86278564 -23.48614746 8.72557129 -23.22143555 9.61450195 C-22.26177227 12.82050736 -21.29360258 16.02368323 -20.31958008 19.2253418 C-19.90013324 20.61037502 -19.48408316 21.99644175 -19.0715332 23.38354492 C-18.47721596 25.37962124 -17.87069738 27.37163616 -17.26171875 29.36328125 C-16.90037842 30.56251221 -16.53903809 31.76174316 -16.16674805 32.99731445 C-15.07125259 35.81662782 -14.45009396 37.27980215 -12 39 C-8.66313353 39.3033515 -5.88482934 39.20956484 -2.625 38.4375 C-0.5287643 36.58313765 -0.31478442 34.93033825 0.01757812 32.21313477 C-0.01932899 27.56642658 -1.6065621 23.16510252 -2.9375 18.75 C-3.51226759 16.78737896 -4.08402361 14.82387273 -4.65234375 12.859375 C-5.03894165 11.56725098 -5.03894165 11.56725098 -5.43334961 10.24902344 C-6 8 -6 8 -6 5 C-7.65 5.33 -9.3 5.66 -11 6 C-11.33 5.01 -11.66 4.02 -12 3 C-7.65395988 0.95480465 -4.86396383 -0.20161508 0 0 Z " fill="#0A0A0A" transform="translate(171,117)"/>
<path d="M0 0 C6.487145 3.83933071 9.38422758 10.08752923 12 17 C12.85886477 21.1965669 12.24550939 24.33712465 10.75 28.375 C8.88790677 31.16813985 8.1939114 32.11280239 5 33 C-0.00827858 33.45529805 -3.06500091 33.21013083 -7 30 C-12.53869908 23.76896354 -15.70185499 16.51564142 -15.42578125 8.1171875 C-14.66861901 4.35221563 -12.78451681 2.59024819 -10 0 C-6.14217025 -1.28594325 -3.95337324 -0.93808857 0 0 Z " fill="#F2F3F5" transform="translate(118,141)"/>
<path d="M0 0 C3.34897764 2.66551282 4.63668741 4.11531593 5.4375 8.26953125 C5.80974875 15.65634242 3.90583436 22.40628008 -0.765625 28.18359375 C-3.94535944 31.29447567 -6.6560767 33.42449133 -11.1875 33.75 C-15.71555712 32.85923467 -17.22020438 31.62215793 -20 28 C-22.22725603 21.31823191 -21.35400213 15.4036829 -18.28125 9.1484375 C-13.53003276 1.18145738 -9.40152608 -2.56110538 0 0 Z " fill="#F3F4F6" transform="translate(377,132)"/>
<path d="M0 0 C1.7421875 1.2109375 1.7421875 1.2109375 2.4921875 4.8359375 C2.6159375 6.5065625 2.6159375 6.5065625 2.7421875 8.2109375 C1.4221875 7.8809375 0.1021875 7.5509375 -1.2578125 7.2109375 C-1.5878125 5.8909375 -1.9178125 4.5709375 -2.2578125 3.2109375 C-4.00851767 3.32563887 -5.75838786 3.45312778 -7.5078125 3.5859375 C-8.48234375 3.65554687 -9.456875 3.72515625 -10.4609375 3.796875 C-13.212209 4.20418614 -14.94837157 4.68505689 -17.2578125 6.2109375 C-21.05815087 12.99725602 -20.98132094 18.98239768 -19.1328125 26.3984375 C-17.49308104 31.37126795 -15.80847732 33.58555395 -11.2578125 36.2109375 C-5.77824864 37.00796497 -2.18370068 35.53446966 2.7421875 33.2109375 C4.06494806 32.83785119 5.39450827 32.48047335 6.7421875 32.2109375 C6.7421875 33.5309375 6.7421875 34.8509375 6.7421875 36.2109375 C-1.05093758 40.85683899 -7.06348484 42.07855426 -16.2578125 41.2109375 C-21.15675193 39.60986316 -24.44820281 36.47738184 -27.2578125 32.2109375 C-30.35813852 25.82001274 -30.54282047 17.72770203 -28.60546875 10.91796875 C-25.78428151 5.43299956 -20.8482157 2.41979233 -15.4453125 -0.1015625 C-10.3778936 -1.1945352 -4.96486715 -1.73512658 0 0 Z " fill="#0D0D0D" transform="translate(216.2578125,109.7890625)"/>
<path d="M0 0 C2.0503389 1.55212571 2.79366533 2.8621038 3.671875 5.265625 C3.296875 8.015625 3.296875 8.015625 2.671875 10.265625 C1.351875 10.265625 0.031875 10.265625 -1.328125 10.265625 C-1.328125 7.955625 -1.328125 5.645625 -1.328125 3.265625 C-6.56199038 1.52100321 -10.79933726 0.73058103 -16.328125 1.265625 C-20.03189584 3.32327547 -22.30239216 5.86692459 -23.8203125 9.87109375 C-25.01561229 15.50739199 -25.1287755 21.57911512 -24.328125 27.265625 C-22.52124994 30.01860507 -21.27810028 31.79063736 -18.328125 33.265625 C-15.95409999 33.33678882 -13.57811823 33.34971585 -11.203125 33.328125 C-9.92179687 33.31910156 -8.64046875 33.31007812 -7.3203125 33.30078125 C-5.83917969 33.28337891 -5.83917969 33.28337891 -4.328125 33.265625 C-4.328125 34.585625 -4.328125 35.905625 -4.328125 37.265625 C-10.48595748 39.31823583 -17.83801988 39.38355643 -23.765625 36.578125 C-28.45532526 33.81890426 -32.30151272 30.38967964 -34.328125 25.265625 C-35.24614676 17.50592528 -35.12267457 10.68550509 -30.76171875 4.0390625 C-23.23795062 -5.2682692 -10.17662664 -4.82050735 0 0 Z " fill="#0C0C0C" transform="translate(344.328125,118.734375)"/>
<path d="M0 0 C1.44245638 0.39917032 2.87888841 0.82014517 4.3125 1.25 C5.11300781 1.48203125 5.91351563 1.7140625 6.73828125 1.953125 C9.41773435 3.19335545 10.3275958 4.61866471 12 7 C11.58113525 7.79696289 11.16227051 8.59392578 10.73071289 9.41503906 C9.17487489 12.38022732 7.62290208 15.34737222 6.07348633 18.31591797 C5.40281928 19.59894728 4.73063306 20.8811837 4.05688477 22.16259766 C3.08727464 24.00736143 2.12321015 25.8549319 1.16015625 27.703125 C0.28822632 29.36843262 0.28822632 29.36843262 -0.60131836 31.06738281 C-2.21001604 34.42020764 -2.21001604 34.42020764 -3 38 C-1.6483633 40.24755753 -1.6483633 40.24755753 0 42 C-1.546875 42.71484375 -1.546875 42.71484375 -4 43 C-6.53857885 41.94608774 -8.84495527 40.86034426 -11.25 39.5625 C-11.8996875 39.22412109 -12.549375 38.88574219 -13.21875 38.53710938 C-14.81814494 37.70213113 -16.40985859 36.85246886 -18 36 C-18 35.01 -18 34.02 -18 33 C-16.95328125 33.03609375 -15.9065625 33.0721875 -14.828125 33.109375 C-11.02770025 32.41289707 -11.02770025 32.41289707 -9.53320312 30.12304688 C-8.14754712 27.54135094 -6.92677136 24.93333852 -5.75 22.25 C-4.9128105 20.44208157 -4.0743069 18.63477098 -3.234375 16.828125 C-2.85087891 15.98185547 -2.46738281 15.13558594 -2.07226562 14.26367188 C-0.87506929 11.7362574 0.55122141 9.38954391 2 7 C2 6.34 2 5.68 2 5 C1.34 4.67 0.68 4.34 0 4 C0 2.68 0 1.36 0 0 Z " fill="#090909" transform="translate(403,141)"/>
<path d="M0 0 C8.25 0.99 16.5 1.98 25 3 C25 4.32 25 5.64 25 7 C16.22779709 7.3189892 7.68175521 6.11636806 -1 5 C-0.67 3.35 -0.34 1.7 0 0 Z " fill="#0C0C0C" transform="translate(278,122)"/>
<path d="M0 0 C4.55555556 0.55555556 4.55555556 0.55555556 6 2 C6.125 5 6.125 5 6 8 C5 9 5 9 2.0625 9.25 C1.051875 9.1675 0.04125 9.085 -1 9 C-3 6 -3 6 -2.75 3.9375 C-2 2 -2 2 0 0 Z " fill="#111111" transform="translate(416,127)"/>
<path d="M0 0 C2.64 0 5.28 0 8 0 C7.69201674 1.48011371 7.378482 2.95907325 7.0625 4.4375 C6.88847656 5.26121094 6.71445313 6.08492188 6.53515625 6.93359375 C6 9 6 9 5 10 C3.35 10 1.7 10 0 10 C0 6.7 0 3.4 0 0 Z " fill="#E8C002" transform="translate(137,408)"/>
<path d="M0 0 C2.31 0 4.62 0 7 0 C7 3.3 7 6.6 7 10 C5.35 10 3.7 10 2 10 C0.68373308 6.38026598 0 3.90432869 0 0 Z " fill="#EBC202" transform="translate(364,408)"/>
</svg>
